<svg width="64" height="64" viewBox="0 0 64 64" fill="none" xmlns="http://www.w3.org/2000/svg">
  <rect width="64" height="64" rx="18" fill="#455D5B"/>
  <rect x="6" y="6" width="52" height="52" rx="14" fill="#E8F1F0" fill-opacity="0.12"/>
  <path d="M14 29.5C18.5 25.5 23.5 23.5 28.5 23.5C32.4 23.5 35.8 24.7 39.2 27.1C42.6 29.5 46 30.7 49.9 30.7C53.2 30.7 56 29.9 58 28.5V34.2C54.6 35.7 50.9 36.5 46.9 36.5C42.8 36.5 38.9 35.1 35.2 32.4C31.5 29.7 28.4 28.5 25.7 28.5C21.7 28.5 17.8 30 14 33V29.5Z" fill="#F8FBFB"/>
  <path d="M14 38.5C18.5 34.5 23.5 32.5 28.5 32.5C32.4 32.5 35.8 33.7 39.2 36.1C42.6 38.5 46 39.7 49.9 39.7C53.2 39.7 56 38.9 58 37.5V43.2C54.6 44.7 50.9 45.5 46.9 45.5C42.8 45.5 38.9 44.1 35.2 41.4C31.5 38.7 28.4 37.5 25.7 37.5C21.7 37.5 17.8 39 14 42V38.5Z" fill="#B7D3D0"/>
  <circle cx="46" cy="18" r="5" fill="#F2B84B"/>
</svg>
